<mxfile host="app.diagrams.net" modified="2024-02-07T08:19:29.690Z" agent="Mozilla/5.0 (Macintosh; Intel Mac OS X 10_15_7) AppleWebKit/605.1.15 (KHTML, like Gecko) Version/17.2.1 Safari/605.1.15" etag="N0_16OnLqLDlo8mb__Y9" version="22.1.21" type="device">
  <diagram name="Seite-1" id="xDqqSftWTPO_Xgjcouw-">
    <mxGraphModel dx="999" dy="604" grid="0" gridSize="10" guides="1" tooltips="1" connect="1" arrows="1" fold="1" page="1" pageScale="1" pageWidth="827" pageHeight="1169" background="#000000" math="0" shadow="0">
      <root>
        <mxCell id="0" />
        <mxCell id="1" parent="0" />
        <mxCell id="kOa9PtWSLEOAeEtAXWd9-6" value="" style="rounded=0;whiteSpace=wrap;html=1;strokeColor=#FFFFFF;fillColor=none;" parent="1" vertex="1">
          <mxGeometry x="498" y="375" width="184" height="261" as="geometry" />
        </mxCell>
        <mxCell id="5bO6rvabhAOJ2PGEV7c8-1" value="&lt;span style=&quot;background-color: rgb(10, 10, 10);&quot;&gt;&lt;font color=&quot;#fcfcfc&quot;&gt;View&lt;br&gt;(Webpage)&lt;/font&gt;&lt;/span&gt;" style="rounded=0;whiteSpace=wrap;html=1;labelBackgroundColor=none;fillColor=#182E3E;strokeColor=#FFFFFF;fontColor=#FFFFFF;" parent="1" vertex="1">
          <mxGeometry x="248" y="598" width="120" height="60" as="geometry" />
        </mxCell>
        <mxCell id="5bO6rvabhAOJ2PGEV7c8-3" value="&lt;span style=&quot;background-color: rgb(10, 10, 10);&quot;&gt;&lt;font color=&quot;#fcfcfc&quot;&gt;Model&lt;br&gt;(Firebase DB)&lt;br&gt;&lt;/font&gt;&lt;/span&gt;" style="rounded=0;whiteSpace=wrap;html=1;labelBackgroundColor=none;fillColor=#182E3E;strokeColor=#FFFFFF;fontColor=#FFFFFF;" parent="1" vertex="1">
          <mxGeometry x="480" y="216" width="120" height="60" as="geometry" />
        </mxCell>
        <mxCell id="5bO6rvabhAOJ2PGEV7c8-6" value="&lt;font color=&quot;#fcfcfc&quot;&gt;&lt;span style=&quot;caret-color: rgb(252, 252, 252); background-color: rgb(10, 10, 10);&quot;&gt;Controller&lt;br&gt;&lt;/span&gt;&lt;/font&gt;&lt;font color=&quot;#ffffff&quot;&gt;(Logik)&lt;/font&gt;" style="rounded=0;whiteSpace=wrap;html=1;labelBackgroundColor=none;fillColor=#182E3E;strokeColor=#FFFFFF;fontColor=#FFFFFF;" parent="1" vertex="1">
          <mxGeometry x="253" y="375" width="120" height="60" as="geometry" />
        </mxCell>
        <mxCell id="5bO6rvabhAOJ2PGEV7c8-8" value="&lt;span style=&quot;background-color: rgb(10, 10, 10);&quot;&gt;&lt;font color=&quot;#fcfcfc&quot;&gt;View&lt;br&gt;(Display an Scanner)&lt;/font&gt;&lt;/span&gt;" style="rounded=0;whiteSpace=wrap;html=1;labelBackgroundColor=none;fillColor=#182E3E;strokeColor=#FFFFFF;fontColor=#FFFFFF;" parent="1" vertex="1">
          <mxGeometry x="526" y="528" width="120" height="60" as="geometry" />
        </mxCell>
        <mxCell id="5bO6rvabhAOJ2PGEV7c8-17" style="edgeStyle=orthogonalEdgeStyle;rounded=0;orthogonalLoop=1;jettySize=auto;html=1;exitX=0.5;exitY=0;exitDx=0;exitDy=0;entryX=0.5;entryY=1;entryDx=0;entryDy=0;labelBackgroundColor=none;fontColor=default;strokeColor=#23445D;" parent="1" source="5bO6rvabhAOJ2PGEV7c8-15" target="5bO6rvabhAOJ2PGEV7c8-3" edge="1">
          <mxGeometry relative="1" as="geometry" />
        </mxCell>
        <mxCell id="5bO6rvabhAOJ2PGEV7c8-15" value="&lt;font color=&quot;#fcfcfc&quot;&gt;&lt;span style=&quot;caret-color: rgb(252, 252, 252); background-color: rgb(10, 10, 10);&quot;&gt;Controller&lt;br&gt;&lt;/span&gt;&lt;/font&gt;" style="rounded=0;whiteSpace=wrap;html=1;labelBackgroundColor=none;fillColor=#182E3E;strokeColor=#FFFFFF;fontColor=#FFFFFF;" parent="1" vertex="1">
          <mxGeometry x="531" y="381" width="120" height="60" as="geometry" />
        </mxCell>
        <mxCell id="5bO6rvabhAOJ2PGEV7c8-16" style="edgeStyle=orthogonalEdgeStyle;rounded=0;orthogonalLoop=1;jettySize=auto;html=1;exitX=0.465;exitY=0.986;exitDx=0;exitDy=0;entryX=0.5;entryY=0;entryDx=0;entryDy=0;strokeWidth=2;exitPerimeter=0;dashed=1;labelBackgroundColor=none;fontColor=default;strokeColor=#23445D;" parent="1" source="5bO6rvabhAOJ2PGEV7c8-15" target="5bO6rvabhAOJ2PGEV7c8-8" edge="1">
          <mxGeometry relative="1" as="geometry">
            <mxPoint x="671" y="479" as="sourcePoint" />
            <mxPoint x="786" y="479" as="targetPoint" />
            <Array as="points">
              <mxPoint x="587" y="516" />
              <mxPoint x="586" y="516" />
            </Array>
          </mxGeometry>
        </mxCell>
        <mxCell id="5bO6rvabhAOJ2PGEV7c8-20" value="" style="shape=flexArrow;endArrow=classic;html=1;rounded=0;labelBackgroundColor=none;fontColor=default;strokeColor=#23445D;" parent="1" edge="1">
          <mxGeometry width="50" height="50" relative="1" as="geometry">
            <mxPoint x="274.5" y="712.5" as="sourcePoint" />
            <mxPoint x="274.5" y="658" as="targetPoint" />
          </mxGeometry>
        </mxCell>
        <mxCell id="5bO6rvabhAOJ2PGEV7c8-21" value="Request" style="edgeLabel;html=1;align=center;verticalAlign=middle;resizable=0;points=[];labelBackgroundColor=none;fontColor=#FFFFFF;" parent="5bO6rvabhAOJ2PGEV7c8-20" vertex="1" connectable="0">
          <mxGeometry x="0.3503" y="2" relative="1" as="geometry">
            <mxPoint x="-28" y="13" as="offset" />
          </mxGeometry>
        </mxCell>
        <mxCell id="kOa9PtWSLEOAeEtAXWd9-1" value="&lt;font color=&quot;#ffffff&quot;&gt;&lt;span style=&quot;caret-color: rgb(255, 255, 255);&quot;&gt;&lt;br&gt;HTTP/HTTPS&lt;br&gt;&lt;/span&gt;&lt;/font&gt;" style="text;html=1;strokeColor=none;fillColor=none;align=center;verticalAlign=middle;whiteSpace=wrap;rounded=0;" parent="1" vertex="1">
          <mxGeometry x="240" y="487" width="60" height="30" as="geometry" />
        </mxCell>
        <mxCell id="kOa9PtWSLEOAeEtAXWd9-4" value="&lt;font color=&quot;#ffffff&quot;&gt;&lt;span style=&quot;caret-color: rgb(255, 255, 255);&quot;&gt;synchron,&lt;br&gt;direkte Datenverbindung&lt;br&gt;&lt;/span&gt;&lt;/font&gt;" style="text;html=1;strokeColor=none;fillColor=none;align=center;verticalAlign=middle;whiteSpace=wrap;rounded=0;" parent="1" vertex="1">
          <mxGeometry x="538" y="289" width="109" height="30" as="geometry" />
        </mxCell>
        <mxCell id="gT1sF4StvgsdI12I53-b-7" style="edgeStyle=orthogonalEdgeStyle;rounded=0;orthogonalLoop=1;jettySize=auto;html=1;entryX=0.5;entryY=0;entryDx=0;entryDy=0;strokeColor=#666666;exitX=0.25;exitY=1;exitDx=0;exitDy=0;fillColor=#f5f5f5;" parent="1" source="kOa9PtWSLEOAeEtAXWd9-16" target="5bO6rvabhAOJ2PGEV7c8-6" edge="1">
          <mxGeometry relative="1" as="geometry" />
        </mxCell>
        <mxCell id="kOa9PtWSLEOAeEtAXWd9-5" value="&lt;font color=&quot;#ffffff&quot;&gt;&lt;span style=&quot;caret-color: rgb(255, 255, 255);&quot;&gt;synchron,&lt;br&gt;http-response&lt;br&gt;&lt;/span&gt;&lt;/font&gt;" style="text;html=1;strokeColor=none;fillColor=none;align=center;verticalAlign=middle;whiteSpace=wrap;rounded=0;" parent="1" vertex="1">
          <mxGeometry x="309" y="246" width="87" height="30" as="geometry" />
        </mxCell>
        <mxCell id="kOa9PtWSLEOAeEtAXWd9-7" value="&lt;font color=&quot;#ffffff&quot;&gt;device (Scanner)&lt;/font&gt;" style="text;html=1;strokeColor=none;fillColor=none;align=center;verticalAlign=middle;whiteSpace=wrap;rounded=0;" parent="1" vertex="1">
          <mxGeometry x="491" y="355" width="102" height="30" as="geometry" />
        </mxCell>
        <mxCell id="kOa9PtWSLEOAeEtAXWd9-9" value="" style="shape=flexArrow;endArrow=classic;startArrow=classic;html=1;rounded=0;fillColor=default;exitX=0.819;exitY=-0.073;exitDx=0;exitDy=0;exitPerimeter=0;" parent="1" source="gT1sF4StvgsdI12I53-b-1" edge="1">
          <mxGeometry width="100" height="100" relative="1" as="geometry">
            <mxPoint x="585.5" y="687" as="sourcePoint" />
            <mxPoint x="585.5" y="640" as="targetPoint" />
          </mxGeometry>
        </mxCell>
        <mxCell id="kOa9PtWSLEOAeEtAXWd9-10" value="Actor" style="shape=umlActor;verticalLabelPosition=bottom;verticalAlign=top;html=1;outlineConnect=0;strokeColor=#FFFFFF;" parent="1" vertex="1">
          <mxGeometry x="429" y="738" width="30" height="60" as="geometry" />
        </mxCell>
        <mxCell id="kOa9PtWSLEOAeEtAXWd9-11" value="&lt;font color=&quot;#ffffff&quot;&gt;User&lt;/font&gt;" style="text;html=1;strokeColor=none;fillColor=none;align=center;verticalAlign=middle;whiteSpace=wrap;rounded=0;" parent="1" vertex="1">
          <mxGeometry x="414" y="789" width="60" height="30" as="geometry" />
        </mxCell>
        <mxCell id="kOa9PtWSLEOAeEtAXWd9-15" value="" style="endArrow=classic;html=1;rounded=0;strokeColor=#d6b656;fillColor=#fff2cc;" parent="1" edge="1">
          <mxGeometry width="50" height="50" relative="1" as="geometry">
            <mxPoint x="535" y="216" as="sourcePoint" />
            <mxPoint x="485" y="166" as="targetPoint" />
          </mxGeometry>
        </mxCell>
        <mxCell id="kOa9PtWSLEOAeEtAXWd9-16" value="&lt;span style=&quot;background-color: rgb(10, 10, 10);&quot;&gt;&lt;font color=&quot;#fcfcfc&quot;&gt;Barcode-API&lt;br&gt;&lt;/font&gt;&lt;/span&gt;" style="rounded=0;whiteSpace=wrap;html=1;labelBackgroundColor=none;fillColor=#f8cecc;strokeColor=#b85450;" parent="1" vertex="1">
          <mxGeometry x="365" y="118" width="120" height="60" as="geometry" />
        </mxCell>
        <mxCell id="kOa9PtWSLEOAeEtAXWd9-17" value="&lt;font color=&quot;#ffffff&quot;&gt;&lt;span style=&quot;caret-color: rgb(255, 255, 255);&quot;&gt;synchron,&lt;br&gt;http-request&lt;br&gt;&lt;/span&gt;&lt;/font&gt;" style="text;html=1;strokeColor=none;fillColor=none;align=center;verticalAlign=middle;whiteSpace=wrap;rounded=0;" parent="1" vertex="1">
          <mxGeometry x="511" y="154" width="81" height="54" as="geometry" />
        </mxCell>
        <mxCell id="kOa9PtWSLEOAeEtAXWd9-19" value="&lt;font color=&quot;#ffffff&quot;&gt;&lt;span style=&quot;caret-color: rgb(255, 255, 255);&quot;&gt;externer Service&lt;/span&gt;&lt;/font&gt;" style="text;html=1;strokeColor=none;fillColor=none;align=center;verticalAlign=middle;whiteSpace=wrap;rounded=0;" parent="1" vertex="1">
          <mxGeometry x="365" y="88" width="60" height="30" as="geometry" />
        </mxCell>
        <mxCell id="gT1sF4StvgsdI12I53-b-1" value="" style="rounded=0;whiteSpace=wrap;html=1;strokeColor=#FFFFFF;fillColor=none;" parent="1" vertex="1">
          <mxGeometry x="145" y="720" width="537" height="1" as="geometry" />
        </mxCell>
        <mxCell id="gT1sF4StvgsdI12I53-b-2" value="" style="shape=flexArrow;endArrow=classic;html=1;rounded=0;labelBackgroundColor=none;fontColor=default;strokeColor=#23445D;" parent="1" edge="1">
          <mxGeometry width="50" height="50" relative="1" as="geometry">
            <mxPoint x="336.5" y="658" as="sourcePoint" />
            <mxPoint x="336" y="715" as="targetPoint" />
          </mxGeometry>
        </mxCell>
        <mxCell id="gT1sF4StvgsdI12I53-b-3" value="Response" style="edgeLabel;html=1;align=center;verticalAlign=middle;resizable=0;points=[];labelBackgroundColor=none;fontColor=#FFFFFF;" parent="gT1sF4StvgsdI12I53-b-2" vertex="1" connectable="0">
          <mxGeometry x="0.3503" y="2" relative="1" as="geometry">
            <mxPoint x="28" y="-12" as="offset" />
          </mxGeometry>
        </mxCell>
        <mxCell id="gT1sF4StvgsdI12I53-b-6" value="" style="endArrow=classic;html=1;rounded=0;strokeColor=#23345D;exitX=0.5;exitY=1;exitDx=0;exitDy=0;" parent="1" source="5bO6rvabhAOJ2PGEV7c8-6" edge="1">
          <mxGeometry width="50" height="50" relative="1" as="geometry">
            <mxPoint x="311" y="438" as="sourcePoint" />
            <mxPoint x="313" y="594" as="targetPoint" />
          </mxGeometry>
        </mxCell>
      </root>
    </mxGraphModel>
  </diagram>
</mxfile>
